# xmcd
#
# Track frame offsets:
#	150
#	13574
#	26439
#	40837
#	55194
#	69585
#
# Disc length: 1126 seconds
#
# Revision: 1
# Processed by: cddbd v1.5.2PL0 Copyright (c) Steve Scherf et al.
# Submitted via: audiograbber 1.83.01
#
DISCID=43046406
DTITLE=Exile Parade - Brothel Ballet
DYEAR=2009
DGENRE=hard rock
TTITLE0=Fire Walk With Me
TTITLE1=Love Disco
TTITLE2=Bicycle Thieves
TTITLE3=Heart Into Suicide
TTITLE4=Man Is Sick
TTITLE5=Son Of God
EXTD=
EXTT0=
EXTT1=
EXTT2=
EXTT3=
EXTT4=
EXTT5=
PLAYORDER=
